<?xml version="1.0" encoding="UTF-8" standalone="no"?>
<!-- Created with Inkscape (http://www.inkscape.org/) -->

<svg
   width="500"
   height="500"
   viewBox="0 0 132.29166 132.29167"
   version="1.1"
   id="svg1"
   xml:space="preserve"
   sodipodi:docname="base_logo.svg"
   inkscape:version="1.3.2 (091e20e, 2023-11-25)"
   inkscape:export-filename="Devops.png"
   inkscape:export-xdpi="96"
   inkscape:export-ydpi="96"
   xmlns:inkscape="http://www.inkscape.org/namespaces/inkscape"
   xmlns:sodipodi="http://sodipodi.sourceforge.net/DTD/sodipodi-0.dtd"
   xmlns:xlink="http://www.w3.org/1999/xlink"
   xmlns="http://www.w3.org/2000/svg"
   xmlns:svg="http://www.w3.org/2000/svg"><sodipodi:namedview
     id="namedview1"
     pagecolor="#ffffff"
     bordercolor="#000000"
     borderopacity="0.25"
     inkscape:showpageshadow="2"
     inkscape:pageopacity="0.0"
     inkscape:pagecheckerboard="0"
     inkscape:deskcolor="#d1d1d1"
     inkscape:document-units="px"
     inkscape:zoom="1.4039843"
     inkscape:cx="310.18866"
     inkscape:cy="305.20285"
     inkscape:window-width="1920"
     inkscape:window-height="1080"
     inkscape:window-x="1512"
     inkscape:window-y="0"
     inkscape:window-maximized="0"
     inkscape:current-layer="layer1" /><defs
     id="defs1"><linearGradient
       id="linearGradient28"
       inkscape:collect="always"><stop
         style="stop-color:#ff00ff;stop-opacity:1"
         offset="0"
         id="stop26" /><stop
         style="stop-color:#00ffff;stop-opacity:1"
         offset="0.99989998"
         id="stop27" /><stop
         style="stop-color:#ff7f2a;stop-opacity:1"
         offset="1"
         id="stop28" /></linearGradient><linearGradient
       id="linearGradient23"
       inkscape:collect="always"><stop
         style="stop-color:#ff00ff;stop-opacity:1"
         offset="0"
         id="stop22" /><stop
         style="stop-color:#00ffff;stop-opacity:1"
         offset="0.5"
         id="stop24" /><stop
         style="stop-color:#ff7f2a;stop-opacity:1"
         offset="1"
         id="stop23" /></linearGradient><linearGradient
       inkscape:collect="always"
       xlink:href="#linearGradient23"
       id="linearGradient16"
       x1="43.080097"
       y1="255.18759"
       x2="118.50272"
       y2="210.14723"
       gradientUnits="userSpaceOnUse"
       spreadMethod="repeat" /><linearGradient
       inkscape:collect="always"
       xlink:href="#linearGradient28"
       id="linearGradient26"
       gradientUnits="userSpaceOnUse"
       x1="43.080097"
       y1="255.18759"
       x2="118.50272"
       y2="210.14723"
       spreadMethod="repeat" /></defs><g
     inkscape:label="Layer 1"
     inkscape:groupmode="layer"
     id="layer1"><g
       id="path4"
       transform="translate(-47.6783,65.581218)" /><g
       id="path1"
       transform="matrix(1.3585371,0,0,1.4447928,-58.192158,-262.69502)"
       style="fill:url(#linearGradient16);fill-opacity:1"><path
         id="path3"
         style="color:#000000;fill:url(#linearGradient26);fill-opacity:1;-inkscape-stroke:none"
         d="m 129.38315,181.82193 c -1.76358,15.9221 -10.06972,29.8473 -10.81381,28.77602 -0.37205,-0.53564 0.0439,-0.002 -0.35347,-0.51883 -0.1987,-0.25843 7.23986,-7.18286 3.60857,-16.12718 l -8.02329,0.19895 c 5.17651,8.38812 2.96579,14.10543 2.52026,13.62863 -1.78606,-1.91142 -5.70487,-5.9367 -8.93588,-8.05998 -2.20266,-1.44747 -4.55607,-2.69398 -7.03265,-3.71295 -4.953149,-2.03795 -10.398571,-3.16518 -16.114262,-3.16518 -22.862755,0 -41.404191,18.03125 -41.404191,40.27351 0,1.22415 0.06523,2.43292 0.175183,3.62924 4.75646,2.18344 9.770523,4.35688 17.887797,6.44095 11.419753,2.93196 29.000847,5.68802 60.316213,8.04292 2.82573,-5.44617 4.42712,-11.59597 4.42712,-18.11311 0,-5.56055 -3.12405,-14.1558 -5.21932,-18.97403 -0.45278,-1.04123 13.27032,-2.04183 19.79104,-20.10369 z m -40.791826,17.45113 c 3.439622,0.0689 6.925768,1.86447 8.131804,4.56923 0.278048,0.62362 0.465199,0.75276 1.352889,0.93224 3.922033,0.79299 7.430553,4.6655 7.430553,8.20209 0,0.8606 0.0673,0.94961 1.67277,2.19418 4.31895,3.34801 4.63577,7.67165 0.83664,11.41687 -1.03097,1.01632 -1.12546,1.19189 -1.01131,1.87482 0.68203,4.08299 -4.01087,9.01367 -9.009785,9.46609 -0.57817,0.0523 -1.052783,0.19138 -1.053683,0.30903 -0.01863,1.71507 -3.600639,4.47301 -6.597013,5.07927 -5.42432,1.09753 -9.468138,-2.03165 -9.865548,-7.63467 -0.24974,-3.52113 -0.06385,-3.24683 -2.199349,-3.24683 h -1.791105 v 1.82676 c 0,1.79276 0.01291,1.83548 0.709001,2.3058 2.0694,1.39818 1.122267,4.35955 -1.521871,4.75785 -3.390614,0.51075 -5.476891,-2.59288 -3.102137,-4.61471 l 0.822689,-0.70073 v -2.63291 c 0,-3.40994 0.01709,-3.42512 3.838009,-3.42512 h 2.584338 v -1.41696 c 0,-2.22832 0.807505,-2.02055 -7.874971,-2.02055 h -7.585584 v 4.06022 c 0,3.73876 0.03441,4.07733 0.438216,4.27984 1.706228,0.8556 1.517287,3.54458 -0.313159,4.45296 -3.552252,1.76281 -7.182878,-2.15534 -4.046264,-4.36666 l 0.82889,-0.58446 v -4.78059 c 0,-6.26748 -1.256305,-5.54436 9.633003,-5.54436 h 8.681641 v -1.31 c 0,-0.72064 -0.0678,-1.70942 -0.150895,-2.19677 l -0.151412,-0.88573 h -6.677112 -6.677112 l -0.886767,0.69505 c -2.526476,1.9809 -6.581993,0.1028 -5.667355,-2.62465 0.68565,-2.04458 4.642793,-2.67398 5.982581,-0.95136 0.30197,0.38781 0.475446,0.39791 7.224882,0.39791 h 6.91534 l 0.05994,-1.81436 0.06046,-1.81436 h -3.789949 c -3.473734,0 -3.84179,-0.033 -4.416268,-0.39584 l -0.626835,-0.39585 v -3.13055 c 0,-2.98212 -0.02371,-3.14113 -0.498161,-3.34502 -2.278576,-0.97917 -1.310349,-4.4754 1.350305,-4.87619 3.410412,-0.51374 5.577998,2.98791 2.949174,4.76405 l -0.709001,0.47904 v 2.20865 2.20865 h 2.937289 2.937805 l 0.155029,-1.7663 c 0.50826,-5.79611 1.845479,-8.16229 5.351611,-9.46815 1.050033,-0.39109 2.191241,-0.55989 3.337781,-0.53692 z m 0.310576,2.8081 c -1.148196,-0.0334 -2.373647,0.31825 -3.484542,1.21026 -2.123796,1.70538 -2.031401,0.88583 -2.031401,18.07176 0,17.51382 -0.04612,17.21923 2.90835,18.67742 1.910666,0.94302 4.399509,0.53703 6.069397,-0.99012 2.120396,-1.93916 1.340418,-4.13716 -2.110466,-5.94641 -2.816184,-1.4765 -3.259187,-2.97366 -1.013891,-3.42615 1.504666,-0.30324 6.480144,2.80375 7.244002,4.52376 0.3795,0.85456 0.953495,0.92827 2.511991,0.32246 3.10969,-1.20874 4.69236,-3.7543 4.09846,-6.59236 l -0.29869,-1.42576 1.45056,-1.18959 c 2.72728,-2.23639 3.31933,-4.28766 1.85363,-6.42286 -0.6381,-0.92957 -1.1112,-1.32094 -3.56619,-2.94969 -0.68759,-0.45617 -0.7187,-0.54508 -0.85215,-2.4474 -0.19273,-2.74629 -1.42538,-4.52464 -3.826635,-5.52008 l -0.872815,-0.36173 -0.54312,0.9033 c -0.868248,1.44428 -2.485797,2.71767 -3.451985,2.71767 -1.770306,0 -2.318795,-1.43604 -1.006657,-2.63602 3.116949,-2.85049 0.366736,-6.41816 -3.077848,-6.51846 z m 6.007385,11.58895 c 0.622626,-0.015 1.367148,0.2324 2.077909,0.8506 3.914966,3.40511 3.973656,9.50916 0.123507,12.90102 -1.474448,1.29895 -3.87913,-0.15219 -2.777092,-1.67587 2.804846,-3.87801 2.779191,-6.58512 -0.08888,-9.32398 -1.48286,-1.41603 -0.705221,-2.71868 0.664559,-2.75177 z m -34.409269,30.17697 c 3.544012,9.59991 -7.472413,3.34665 -7.472413,7.47242 0,4.12575 3.34665,7.47654 7.472413,7.47654 4.125759,0 7.476546,-3.35079 7.476546,-7.47654 0,-4.12577 -3.350787,-7.47242 -7.476546,-7.47242 z m 37.541377,6.64714 c 3.544007,9.59991 -7.472929,3.34665 -7.472929,7.47241 0,4.12576 3.347163,7.47655 7.472929,7.47655 4.125757,0 7.476547,-3.35079 7.476547,-7.47655 0,-4.12576 -3.35079,-7.47241 -7.476547,-7.47241 z m -54.470577,0.0243 c 3.724487,5.33233 15.125907,14.94672 20.981149,18.03146 5.855242,3.08473 12.560883,4.8364 19.686653,4.8364 7.623388,0 25.953492,-6.81 32.088482,-10.30687 -4.84883,-0.31026 -20.011285,4.29999 -23.299354,4.18528 -3.288069,-0.11471 -2.900892,0.0819 -4.931482,-1.06971 -1.848362,-1.04826 -1.826298,-3.49784 -2.62878,-4.59507 -2.304055,-3.15029 -8.500546,-5.089 -13.028145,-3.06131 -1.169048,0.52356 -2.570274,3.15257 -4.886524,3.40083 -2.124434,0.2277 -3.032764,0.25631 -6.063712,-1.12035 -3.03095,-1.37664 -13.179334,-8.25291 -17.918287,-10.30066 z" /></g></g></svg>
